<?xml version="1.0" encoding="utf-8"?>
<!-- Generator: Adobe Illustrator 21.0.2, SVG Export Plug-In . SVG Version: 6.00 Build 0)  -->
<svg version="1.1" id="Calque_1" xmlns="http://www.w3.org/2000/svg" xmlns:xlink="http://www.w3.org/1999/xlink" x="0px" y="0px"
	 viewBox="0 0 167.7 46.4" style="enable-background:new 0 0 167.7 46.4;" xml:space="preserve">
<style type="text/css">
	.st0{fill:url(#SVGID_1_);}
	.st1{fill:url(#SVGID_2_);}
	.st2{fill:url(#SVGID_3_);}
	.st3{fill:url(#SVGID_4_);}
	.st4{fill:url(#SVGID_5_);}
	.st5{fill:url(#SVGID_6_);}
	.st6{fill:url(#SVGID_7_);}
	.st7{enable-background:new    ;}
	.st8{fill:#2CB195;}
	.st9{fill:#4E94D0;}
</style>
<g>
	<g>
		
			<linearGradient id="SVGID_1_" gradientUnits="userSpaceOnUse" x1="43.9454" y1="13.8" x2="12.9454" y2="13.8" gradientTransform="matrix(1 0 0 -1 0 48)">
			<stop  offset="0" style="stop-color:#2CB195"/>
			<stop  offset="1" style="stop-color:#4E93D0"/>
		</linearGradient>
		<path class="st0" d="M39,30.9c3.1,0.7,5,1.7,5,2.8c0,2.1-6.9,3.8-15.5,3.8S13,35.8,13,33.7c0-1.1,1.9-2.1,5-2.8
			c-1.3,0.5-2,1.1-2,1.7c0,1.7,5.6,3.1,12.6,3.1c6.9,0,12.6-1.4,12.6-3.1C41,32,40.3,31.4,39,30.9z"/>
		
			<linearGradient id="SVGID_2_" gradientUnits="userSpaceOnUse" x1="49.4678" y1="11.4" x2="7.4085" y2="11.4" gradientTransform="matrix(1 0 0 -1 0 48)">
			<stop  offset="0" style="stop-color:#2CB195"/>
			<stop  offset="1" style="stop-color:#4E93D0"/>
		</linearGradient>
		<path class="st1" d="M41.9,31.5c4.6,1.1,7.5,2.6,7.5,4.4c0,3.2-9.4,5.8-21,5.8s-21-2.6-21-5.8c0-1.8,2.9-3.4,7.5-4.4
			c-2.7,0.9-4.3,2-4.3,3.2c0,2.7,8,4.9,17.8,4.9s17.8-2.2,17.8-4.9C46.2,33.5,44.6,32.4,41.9,31.5z"/>
		
			<linearGradient id="SVGID_3_" gradientUnits="userSpaceOnUse" x1="56.9" y1="8.45" x2="9.094947e-13" y2="8.45" gradientTransform="matrix(1 0 0 -1 0 48)">
			<stop  offset="0" style="stop-color:#2CB195"/>
			<stop  offset="1" style="stop-color:#4E93D0"/>
		</linearGradient>
		<path class="st2" d="M46.7,32.7c6.2,1.4,10.2,3.6,10.2,6c0,4.3-12.7,7.8-28.4,7.8C12.7,46.4,0,42.9,0,38.6c0-2.4,4-4.5,10.2-6
			c-3.6,1.2-5.8,2.7-5.8,4.3c0,3.6,10.8,6.6,24.1,6.6s24.1-2.9,24.1-6.6C52.5,35.3,50.3,33.8,46.7,32.7z"/>
		<g>
			<g>
				<g>
					
						<linearGradient id="SVGID_4_" gradientUnits="userSpaceOnUse" x1="35.0899" y1="14.5468" x2="21.286" y2="42.0576" gradientTransform="matrix(1 0 0 -1 0 48)">
						<stop  offset="0" style="stop-color:#2CB195"/>
						<stop  offset="0.1381" style="stop-color:#2EB09A"/>
						<stop  offset="0.3633" style="stop-color:#35ABA8"/>
						<stop  offset="0.6476" style="stop-color:#3FA3BC"/>
						<stop  offset="0.977" style="stop-color:#4D95CF"/>
						<stop  offset="1" style="stop-color:#4E93D0"/>
					</linearGradient>
					<path class="st3" d="M35.8,18.2c0.9,4.7-4.6,8.3-8.6,6.8c-3.5-1.3-4-6.1-3-9.4l0,0C26.2,9.8,28.7,5,32.4,0l0,0
						C25.6,6.3,18,15.1,17.9,24.8c-0.1,7.9,8,11.1,14.5,8.2c4.8-2.2,8.6-7.3,5.5-12.4c-0.6-1-1.5-2.2-2.3-3.5
						C35.7,17.5,35.7,17.8,35.8,18.2z"/>
					
						<linearGradient id="SVGID_5_" gradientUnits="userSpaceOnUse" x1="35.6886" y1="23.8529" x2="24.6694" y2="30.2149" gradientTransform="matrix(1 0 0 -1 0 48)">
						<stop  offset="0" style="stop-color:#2CB195"/>
						<stop  offset="0.1133" style="stop-color:#33ACA5"/>
						<stop  offset="0.2952" style="stop-color:#3DA5B8"/>
						<stop  offset="0.477" style="stop-color:#449EC4"/>
						<stop  offset="0.6564" style="stop-color:#4A98CB"/>
						<stop  offset="0.8321" style="stop-color:#4D95CF"/>
						<stop  offset="1" style="stop-color:#4E93D0"/>
					</linearGradient>
					<path class="st4" d="M35.7,17.7L35.7,17.7c0,0.2,0.1,0.3,0.1,0.5c0.9,4.7-4.4,8.2-8.6,6.8c-2.1-0.7-3.4-3.1-3.4-6
						c-0.1,3.2,1.3,6,3.6,6.7c4.1,1.3,9.6-2.2,8.6-7c0-0.2-0.1-0.3-0.1-0.5C35.8,18,35.8,17.9,35.7,17.7z"/>
					
						<linearGradient id="SVGID_6_" gradientUnits="userSpaceOnUse" x1="30.4505" y1="29.9892" x2="30.4505" y2="48.063" gradientTransform="matrix(1 0 0 -1 0 48)">
						<stop  offset="0" style="stop-color:#2CB195"/>
						<stop  offset="2.303892e-02" style="stop-color:#2DB097"/>
						<stop  offset="0.3524" style="stop-color:#3BA6B5"/>
						<stop  offset="0.6367" style="stop-color:#459DC6"/>
						<stop  offset="0.8619" style="stop-color:#4C96CD"/>
						<stop  offset="1" style="stop-color:#4E93D0"/>
					</linearGradient>
					<path class="st5" d="M32.3,0.3C30.9,3.1,30,6,29.4,9c-0.9,4.5-1.2,10.4-4.4,14.1c0.6,0.9,1.4,1.6,2.3,1.9
						c4.1,1.4,9.4-2.1,8.5-6.8c-0.1-0.3-0.2-0.7-0.3-1.1C32.1,12.2,30.1,6.1,32.3,0.3z"/>
					
						<linearGradient id="SVGID_7_" gradientUnits="userSpaceOnUse" x1="29.6911" y1="32.0761" x2="24.3743" y2="37.3929" gradientTransform="matrix(1 0 0 -1 0 48)">
						<stop  offset="0" style="stop-color:#2CB195"/>
						<stop  offset="1" style="stop-color:#4E93D0"/>
					</linearGradient>
					<path class="st6" d="M29.3,10.4c0.3-2,0.7-4,1.2-5.7C30.1,6,29.7,7.5,29.4,9c-0.9,4.5-1.2,10.4-4.4,14.1c0.2,0.4,0.5,0.7,0.9,1
						C28.6,20.3,28.6,14.8,29.3,10.4z"/>
				</g>
			</g>
		</g>
	</g>
	<g class="st7">
		<path class="st8" d="M66.7,33.5c-1.3,0-2.3-0.4-3-1.1c-0.7-0.7-1.1-1.8-1.1-3.1v-8.5h-1.6c-0.2,0-0.4-0.1-0.5-0.2
			c-0.1-0.1-0.2-0.3-0.2-0.6v-1.5l2.4-0.4l0.8-4.2c0-0.2,0.1-0.4,0.3-0.5c0.1-0.1,0.3-0.2,0.5-0.2h1.9v4.8h4.1v2.6h-4.1V29
			c0,0.5,0.1,0.8,0.3,1.1c0.2,0.3,0.6,0.4,1,0.4c0.2,0,0.4,0,0.6-0.1c0.2-0.1,0.3-0.1,0.4-0.2c0.1-0.1,0.2-0.1,0.3-0.2
			S69,30,69.1,30c0.1,0,0.2,0,0.3,0.1s0.1,0.1,0.2,0.2l1.1,1.8c-0.5,0.4-1.1,0.8-1.8,1C68.2,33.4,67.5,33.5,66.7,33.5z"/>
		<path class="st8" d="M94.4,18l-4.8,15.2h-2.9c-0.3,0-0.6-0.2-0.7-0.7l-2.7-8.8c-0.1-0.3-0.2-0.6-0.2-0.9c-0.1-0.3-0.1-0.6-0.2-0.9
			c-0.1,0.3-0.1,0.6-0.2,0.9c-0.1,0.3-0.2,0.6-0.2,0.9l-2.8,8.8c-0.1,0.4-0.4,0.7-0.8,0.7H76L71.1,18h2.9c0.3,0,0.5,0.1,0.7,0.2
			c0.2,0.1,0.3,0.3,0.4,0.5l2.2,8.1c0.1,0.4,0.2,0.9,0.3,1.3c0.1,0.4,0.2,0.9,0.2,1.3c0.1-0.4,0.2-0.9,0.3-1.3
			c0.1-0.4,0.3-0.9,0.4-1.3l2.5-8.2c0.1-0.2,0.2-0.4,0.3-0.5c0.2-0.1,0.4-0.2,0.6-0.2h1.6c0.3,0,0.5,0.1,0.7,0.2s0.3,0.3,0.4,0.5
			l2.4,8.2c0.1,0.4,0.3,0.9,0.4,1.3c0.1,0.4,0.2,0.9,0.3,1.3c0.1-0.8,0.3-1.7,0.5-2.6l2.2-8.1c0.1-0.2,0.2-0.4,0.4-0.5
			c0.2-0.1,0.4-0.2,0.6-0.2H94.4z"/>
		<path class="st8" d="M100.8,13.6c0,0.3-0.1,0.6-0.2,0.9c-0.1,0.3-0.3,0.5-0.5,0.7c-0.2,0.2-0.5,0.4-0.8,0.5s-0.6,0.2-0.9,0.2
			c-0.3,0-0.6-0.1-0.9-0.2s-0.5-0.3-0.7-0.5s-0.4-0.5-0.5-0.7c-0.1-0.3-0.2-0.6-0.2-0.9c0-0.3,0.1-0.6,0.2-0.9
			c0.1-0.3,0.3-0.5,0.5-0.7s0.5-0.4,0.7-0.5c0.3-0.1,0.6-0.2,0.9-0.2c0.3,0,0.6,0.1,0.9,0.2c0.3,0.1,0.5,0.3,0.8,0.5
			c0.2,0.2,0.4,0.5,0.5,0.7C100.7,12.9,100.8,13.2,100.8,13.6z M100.3,18v15.2h-3.7V18H100.3z"/>
		<path class="st8" d="M107.5,20.1c0.6-0.7,1.3-1.3,2.1-1.7c0.8-0.4,1.7-0.7,2.8-0.7c0.8,0,1.6,0.2,2.3,0.5s1.3,0.8,1.8,1.5
			c0.5,0.7,0.9,1.5,1.2,2.4c0.3,1,0.4,2.1,0.4,3.3c0,1.1-0.2,2.2-0.5,3.2s-0.7,1.8-1.3,2.5c-0.6,0.7-1.3,1.3-2.1,1.7
			c-0.8,0.4-1.7,0.6-2.7,0.6c-0.9,0-1.6-0.1-2.2-0.4c-0.6-0.3-1.1-0.6-1.6-1.1v6.2H104V18h2.2c0.5,0,0.8,0.2,0.9,0.7L107.5,20.1z
			 M107.7,29.3c0.4,0.5,0.9,0.9,1.4,1.1c0.5,0.2,1,0.3,1.6,0.3c0.6,0,1.1-0.1,1.5-0.3c0.4-0.2,0.8-0.5,1.1-0.9s0.6-1,0.7-1.6
			c0.2-0.6,0.3-1.4,0.3-2.3c0-0.9-0.1-1.6-0.2-2.3s-0.3-1.1-0.6-1.5c-0.3-0.4-0.6-0.7-1-0.8c-0.4-0.2-0.8-0.3-1.3-0.3
			c-0.8,0-1.4,0.2-1.9,0.5s-1,0.8-1.5,1.4V29.3z"/>
	</g>
	<g class="st7">
		<path class="st9" d="M124.5,19.9c0.6-0.6,1.3-1.2,2-1.5c0.7-0.4,1.6-0.6,2.6-0.6c0.9,0,1.7,0.2,2.4,0.5c0.7,0.3,1.3,0.8,1.8,1.5
			c0.5,0.6,0.9,1.4,1.1,2.4c0.3,0.9,0.4,2,0.4,3.1c0,1.2-0.2,2.4-0.5,3.4c-0.3,1-0.7,1.9-1.3,2.6c-0.6,0.7-1.3,1.3-2.1,1.7
			c-0.8,0.4-1.7,0.6-2.7,0.6c-0.5,0-0.9,0-1.3-0.1c-0.4-0.1-0.7-0.2-1.1-0.4s-0.6-0.4-0.9-0.6c-0.3-0.2-0.5-0.5-0.8-0.8l-0.2,1
			c-0.1,0.3-0.2,0.4-0.3,0.5c-0.1,0.1-0.3,0.2-0.6,0.2h-2.4v-22h3.7V19.9z M124.5,29.3c0.4,0.5,0.9,0.9,1.4,1.1
			c0.5,0.2,1,0.3,1.5,0.3c0.6,0,1.1-0.1,1.5-0.3s0.8-0.5,1.1-0.9c0.3-0.4,0.6-1,0.7-1.6s0.3-1.5,0.3-2.4c0-1.7-0.3-2.9-0.8-3.6
			s-1.3-1.1-2.4-1.1c-0.7,0-1.3,0.2-1.8,0.5s-1,0.8-1.5,1.4V29.3z"/>
		<path class="st9" d="M144.4,17.8c1.1,0,2.2,0.2,3.1,0.5s1.7,0.9,2.4,1.6c0.7,0.7,1.2,1.5,1.5,2.5c0.4,1,0.5,2.1,0.5,3.2
			c0,1.2-0.2,2.3-0.5,3.3c-0.4,1-0.9,1.8-1.5,2.5c-0.7,0.7-1.4,1.2-2.4,1.6c-0.9,0.4-2,0.5-3.1,0.5c-1.1,0-2.2-0.2-3.1-0.5
			c-0.9-0.4-1.7-0.9-2.4-1.6c-0.7-0.7-1.2-1.5-1.5-2.5c-0.4-1-0.5-2.1-0.5-3.3c0-1.2,0.2-2.3,0.5-3.2c0.4-1,0.9-1.8,1.5-2.5
			c0.7-0.7,1.5-1.2,2.4-1.6S143.3,17.8,144.4,17.8z M144.4,30.6c1.3,0,2.2-0.4,2.8-1.3s0.9-2.1,0.9-3.7c0-1.6-0.3-2.9-0.9-3.8
			c-0.6-0.9-1.5-1.3-2.8-1.3c-1.3,0-2.2,0.4-2.9,1.3s-0.9,2.1-0.9,3.7c0,1.6,0.3,2.9,0.9,3.7S143.1,30.6,144.4,30.6z"/>
		<path class="st9" d="M167.6,33.2h-3.5c-0.3,0-0.5-0.1-0.6-0.2c-0.2-0.1-0.3-0.3-0.4-0.5l-3.2-5.3c0,0.2-0.1,0.3-0.2,0.5
			s-0.1,0.3-0.2,0.4l-2.8,4.4c-0.1,0.2-0.2,0.3-0.4,0.5c-0.2,0.1-0.4,0.2-0.6,0.2h-3.3l5.2-7.8l-5-7.4h3.5c0.3,0,0.5,0,0.6,0.1
			c0.1,0.1,0.2,0.2,0.3,0.4l3.2,5.1c0.1-0.3,0.3-0.7,0.5-1l2.6-4c0.2-0.4,0.5-0.5,0.8-0.5h3.4l-5,7.2L167.6,33.2z"/>
	</g>
</g>
</svg>
