<?xml version="1.0" encoding="utf-8"?>
<!-- Generator: Adobe Illustrator 21.0.2, SVG Export Plug-In . SVG Version: 6.00 Build 0)  -->
<svg version="1.1" id="Calque_1" xmlns="http://www.w3.org/2000/svg" xmlns:xlink="http://www.w3.org/1999/xlink" x="0px" y="0px"
	 viewBox="0 0 167.7 46.4" style="enable-background:new 0 0 167.7 46.4;" xml:space="preserve">
<style type="text/css">
	.st0{fill:#FFFFFF;}
</style>
<g>
	<g>
		<path class="st0" d="M39,30.9c3.1,0.7,5,1.7,5,2.8c0,2.1-6.9,3.8-15.5,3.8c-8.6,0-15.5-1.7-15.5-3.8c0-1.1,1.9-2.1,5-2.8
			c-1.3,0.5-2,1.1-2,1.7c0,1.7,5.6,3.1,12.6,3.1c6.9,0,12.6-1.4,12.6-3.1C41,32,40.3,31.4,39,30.9z"/>
		<path class="st0" d="M41.9,31.5c4.6,1.1,7.5,2.6,7.5,4.4c0,3.2-9.4,5.8-21,5.8c-11.6,0-21-2.6-21-5.8c0-1.8,2.9-3.4,7.5-4.4
			c-2.7,0.9-4.3,2-4.3,3.2c0,2.7,8,4.9,17.8,4.9c9.8,0,17.8-2.2,17.8-4.9C46.2,33.5,44.6,32.4,41.9,31.5z"/>
		<path class="st0" d="M46.7,32.7c6.2,1.4,10.2,3.6,10.2,6c0,4.3-12.7,7.8-28.4,7.8C12.7,46.4,0,42.9,0,38.6c0-2.4,4-4.5,10.2-6
			c-3.6,1.2-5.8,2.7-5.8,4.3c0,3.6,10.8,6.6,24.1,6.6c13.3,0,24.1-2.9,24.1-6.6C52.5,35.3,50.3,33.8,46.7,32.7z"/>
		<g>
			<g>
				<g>
					<path class="st0" d="M35.8,18.2c0.9,4.7-4.6,8.3-8.6,6.8c-3.5-1.3-4-6.1-3-9.4c0,0,0,0,0,0C26.2,9.8,28.7,5,32.4,0c0,0,0,0,0,0
						C25.6,6.3,18,15.1,17.9,24.8c-0.1,7.9,8,11.1,14.5,8.2c4.8-2.2,8.6-7.3,5.5-12.4c-0.6-1-1.5-2.2-2.3-3.5
						C35.7,17.5,35.7,17.8,35.8,18.2z"/>
					<path class="st0" d="M35.7,17.7C35.7,17.7,35.7,17.7,35.7,17.7c0,0.2,0.1,0.3,0.1,0.5c0.9,4.7-4.4,8.2-8.6,6.8
						c-2.1-0.7-3.4-3.1-3.4-6c-0.1,3.2,1.3,6,3.6,6.7c4.1,1.3,9.6-2.2,8.6-7c0-0.2-0.1-0.3-0.1-0.5C35.8,18,35.8,17.9,35.7,17.7z"/>
					<path class="st0" d="M32.3,0.3C30.9,3.1,30,6,29.4,9c-0.9,4.5-1.2,10.4-4.4,14.1c0.6,0.9,1.4,1.6,2.3,1.9
						c4.1,1.4,9.4-2.1,8.5-6.8c-0.1-0.3-0.2-0.7-0.3-1.1C32.1,12.2,30.1,6.1,32.3,0.3z"/>
					<path class="st0" d="M29.3,10.4c0.3-2,0.7-4,1.2-5.7C30.1,6,29.7,7.5,29.4,9c-0.9,4.5-1.2,10.4-4.4,14.1c0.2,0.4,0.5,0.7,0.9,1
						C28.6,20.3,28.6,14.8,29.3,10.4z"/>
				</g>
			</g>
		</g>
	</g>
	<g>
		<path class="st0" d="M66.7,33.5c-1.3,0-2.3-0.4-3-1.1c-0.7-0.7-1.1-1.8-1.1-3.1v-8.5h-1.6c-0.2,0-0.4-0.1-0.5-0.2
			c-0.1-0.1-0.2-0.3-0.2-0.6v-1.5l2.4-0.4l0.8-4.2c0-0.2,0.1-0.4,0.3-0.5c0.1-0.1,0.3-0.2,0.5-0.2h1.9v4.8h4.1v2.6h-4.1V29
			c0,0.5,0.1,0.8,0.3,1.1c0.2,0.3,0.6,0.4,1,0.4c0.2,0,0.4,0,0.6-0.1c0.2-0.1,0.3-0.1,0.4-0.2c0.1-0.1,0.2-0.1,0.3-0.2
			S69,30,69.1,30c0.1,0,0.2,0,0.3,0.1s0.1,0.1,0.2,0.2l1.1,1.8c-0.5,0.4-1.1,0.8-1.8,1S67.5,33.5,66.7,33.5z"/>
		<path class="st0" d="M94.4,18l-4.8,15.2h-2.9c-0.3,0-0.6-0.2-0.7-0.7l-2.7-8.8c-0.1-0.3-0.2-0.6-0.2-0.9c-0.1-0.3-0.1-0.6-0.2-0.9
			c-0.1,0.3-0.1,0.6-0.2,0.9c-0.1,0.3-0.2,0.6-0.2,0.9l-2.8,8.8c-0.1,0.4-0.4,0.7-0.8,0.7H76L71.1,18h2.9c0.3,0,0.5,0.1,0.7,0.2
			s0.3,0.3,0.4,0.5l2.2,8.1c0.1,0.4,0.2,0.9,0.3,1.3c0.1,0.4,0.2,0.9,0.2,1.3c0.1-0.4,0.2-0.9,0.3-1.3c0.1-0.4,0.3-0.9,0.4-1.3
			l2.5-8.2c0.1-0.2,0.2-0.4,0.3-0.5c0.2-0.1,0.4-0.2,0.6-0.2h1.6c0.3,0,0.5,0.1,0.7,0.2s0.3,0.3,0.4,0.5l2.4,8.2
			c0.1,0.4,0.3,0.9,0.4,1.3c0.1,0.4,0.2,0.9,0.3,1.3c0.1-0.8,0.3-1.7,0.5-2.6l2.2-8.1c0.1-0.2,0.2-0.4,0.4-0.5
			c0.2-0.1,0.4-0.2,0.6-0.2H94.4z"/>
		<path class="st0" d="M100.8,13.6c0,0.3-0.1,0.6-0.2,0.9c-0.1,0.3-0.3,0.5-0.5,0.7c-0.2,0.2-0.5,0.4-0.7,0.5
			c-0.3,0.1-0.6,0.2-0.9,0.2c-0.3,0-0.6-0.1-0.9-0.2c-0.3-0.1-0.5-0.3-0.7-0.5c-0.2-0.2-0.4-0.5-0.5-0.7s-0.2-0.6-0.2-0.9
			c0-0.3,0.1-0.6,0.2-0.9c0.1-0.3,0.3-0.5,0.5-0.7c0.2-0.2,0.5-0.4,0.7-0.5c0.3-0.1,0.6-0.2,0.9-0.2c0.3,0,0.6,0.1,0.9,0.2
			c0.3,0.1,0.5,0.3,0.7,0.5c0.2,0.2,0.4,0.5,0.5,0.7C100.7,12.9,100.8,13.2,100.8,13.6z M100.3,18v15.2h-3.7V18H100.3z"/>
		<path class="st0" d="M107.5,20.1c0.6-0.7,1.3-1.3,2.1-1.7c0.8-0.4,1.7-0.7,2.8-0.7c0.8,0,1.6,0.2,2.3,0.5s1.3,0.8,1.8,1.5
			c0.5,0.7,0.9,1.5,1.2,2.4s0.4,2.1,0.4,3.3c0,1.1-0.2,2.2-0.5,3.2c-0.3,1-0.7,1.8-1.3,2.5c-0.6,0.7-1.3,1.3-2.1,1.7
			c-0.8,0.4-1.7,0.6-2.7,0.6c-0.9,0-1.6-0.1-2.2-0.4c-0.6-0.3-1.1-0.6-1.6-1.1v6.2H104V18h2.2c0.5,0,0.8,0.2,0.9,0.7L107.5,20.1z
			 M107.7,29.3c0.4,0.5,0.9,0.9,1.4,1.1c0.5,0.2,1,0.3,1.6,0.3c0.6,0,1.1-0.1,1.5-0.3c0.4-0.2,0.8-0.5,1.1-0.9
			c0.3-0.4,0.6-1,0.7-1.6s0.3-1.4,0.3-2.3c0-0.9-0.1-1.6-0.2-2.3s-0.3-1.1-0.6-1.5s-0.6-0.7-1-0.8c-0.4-0.2-0.8-0.3-1.3-0.3
			c-0.8,0-1.4,0.2-1.9,0.5s-1,0.8-1.5,1.4V29.3z"/>
		<path class="st0" d="M124.6,19.9c0.6-0.6,1.3-1.2,2-1.5c0.7-0.4,1.6-0.6,2.6-0.6c0.9,0,1.7,0.2,2.4,0.5c0.7,0.3,1.3,0.8,1.8,1.5
			s0.9,1.4,1.1,2.4s0.4,2,0.4,3.1c0,1.2-0.2,2.4-0.5,3.4c-0.3,1-0.7,1.9-1.3,2.6s-1.3,1.3-2.1,1.7s-1.7,0.6-2.7,0.6
			c-0.5,0-0.9,0-1.3-0.1s-0.7-0.2-1.1-0.4c-0.3-0.2-0.6-0.4-0.9-0.6c-0.3-0.2-0.5-0.5-0.8-0.8l-0.2,1c-0.1,0.3-0.2,0.4-0.3,0.5
			c-0.1,0.1-0.3,0.2-0.6,0.2h-2.4v-22h3.7V19.9z M124.6,29.3c0.4,0.5,0.9,0.9,1.4,1.1c0.5,0.2,1,0.3,1.6,0.3c0.6,0,1.1-0.1,1.5-0.3
			s0.8-0.5,1.1-0.9s0.6-1,0.7-1.6c0.2-0.7,0.3-1.5,0.3-2.4c0-1.7-0.3-2.9-0.8-3.6c-0.6-0.7-1.4-1.1-2.4-1.1c-0.7,0-1.3,0.2-1.8,0.5
			s-1,0.8-1.5,1.4V29.3z"/>
		<path class="st0" d="M144.5,17.8c1.1,0,2.2,0.2,3.1,0.5c0.9,0.4,1.7,0.9,2.4,1.6s1.2,1.5,1.5,2.5c0.4,1,0.5,2.1,0.5,3.2
			c0,1.2-0.2,2.3-0.5,3.3c-0.4,1-0.9,1.8-1.5,2.5s-1.4,1.2-2.4,1.6c-0.9,0.4-2,0.5-3.1,0.5c-1.1,0-2.2-0.2-3.1-0.5
			c-0.9-0.4-1.7-0.9-2.4-1.6s-1.2-1.5-1.5-2.5c-0.4-1-0.5-2.1-0.5-3.3c0-1.2,0.2-2.3,0.5-3.2c0.4-1,0.9-1.8,1.5-2.5s1.5-1.2,2.4-1.6
			C142.3,18,143.3,17.8,144.5,17.8z M144.5,30.6c1.3,0,2.2-0.4,2.8-1.3s0.9-2.1,0.9-3.7s-0.3-2.9-0.9-3.8c-0.6-0.9-1.5-1.3-2.8-1.3
			c-1.3,0-2.2,0.4-2.9,1.3s-0.9,2.1-0.9,3.7s0.3,2.9,0.9,3.7C142.2,30.2,143.2,30.6,144.5,30.6z"/>
		<path class="st0" d="M167.7,33.2h-3.5c-0.3,0-0.5-0.1-0.6-0.2c-0.2-0.1-0.3-0.3-0.4-0.5l-3.2-5.3c0,0.2-0.1,0.3-0.2,0.5
			s-0.1,0.3-0.2,0.4l-2.8,4.4c-0.1,0.2-0.2,0.3-0.4,0.5c-0.2,0.1-0.4,0.2-0.6,0.2h-3.3l5.2-7.8l-5-7.4h3.5c0.3,0,0.5,0,0.6,0.1
			c0.1,0.1,0.2,0.2,0.3,0.4l3.2,5.1c0.1-0.3,0.3-0.7,0.5-1l2.6-4c0.2-0.4,0.5-0.5,0.8-0.5h3.4l-5,7.2L167.7,33.2z"/>
	</g>
</g>
</svg>
